<svg width="390" height="160" viewBox="0 0 390 160" fill="none" xmlns="http://www.w3.org/2000/svg">
<g clip-path="url(#clip0_619_3825)">
<mask id="mask0_619_3825" style="mask-type:alpha" maskUnits="userSpaceOnUse" x="-105" y="-225" width="600" height="948">
<path fill-rule="evenodd" clip-rule="evenodd" d="M495 -225H-105V723H495V-225ZM195 322C323.13 322 427 271.408 427 209C427 146.592 323.13 96 195 96C66.8699 96 -37 146.592 -37 209C-37 271.408 66.8699 322 195 322Z" fill="#FBBD46"/>
</mask>
<g mask="url(#mask0_619_3825)">
<rect y="-280" width="390" height="432" fill="#007AFF"/>
</g>
<path d="M181.913 133.856C200.509 134.873 209.794 132.733 224.297 133.348C234.572 133.776 246.239 135.515 246.212 136.639C246.158 138.111 225.742 139.716 204.015 138.298C186.836 137.174 178.515 134.579 154.54 133.883C146.325 133.642 141.027 133.883 141 133.562C140.973 133.214 146.378 132.305 152.559 132.09C159.57 131.85 162.433 132.679 178.167 133.669C178.3 133.642 180.388 133.776 181.913 133.856Z" fill="#FFD405" stroke="#FFD405" stroke-width="1.33789" stroke-miterlimit="10"/>
<path d="M184.803 85.398C184.482 86.3613 184.054 87.4583 183.438 88.6357C183.09 89.2779 182.742 89.8666 182.395 90.4017" stroke="#DD000B" stroke-width="0.267578" stroke-miterlimit="10"/>
<path d="M181.833 114.029C181.966 114.27 182.074 114.51 182.207 114.778C182.528 115.42 182.876 116.062 183.197 116.705C183.652 117.588 184.107 118.497 184.589 119.38C185.097 120.37 185.606 121.387 186.141 122.377C186.649 123.341 187.131 124.304 187.639 125.294C188.041 126.07 188.442 126.873 188.843 127.649C189.084 128.103 189.325 128.585 189.566 129.04C189.592 129.094 189.619 129.174 189.673 129.227C189.673 129.201 189.619 129.067 189.646 129.147C189.646 129.174 189.673 129.201 189.673 129.227C189.699 129.281 189.699 129.361 189.699 129.415C189.673 129.308 189.699 129.441 189.699 129.495C189.699 129.575 189.699 129.655 189.699 129.736C189.699 129.789 189.699 129.869 189.699 129.923C189.699 129.789 189.673 130.003 189.673 130.003C189.646 129.977 189.78 129.869 189.699 129.923C189.592 130.03 189.512 130.164 189.432 130.298C189.111 130.726 188.79 131.154 188.495 131.582C188.415 131.689 188.308 131.823 188.228 131.93C188.014 132.224 187.987 132.626 188.067 132.973C188.255 133.856 189.111 134.579 189.994 134.659C190.208 134.686 190.422 134.686 190.636 134.686C191.68 134.739 192.723 134.793 193.793 134.846C194.195 134.873 194.623 134.873 195.024 134.9C195.452 134.927 195.881 134.927 196.282 134.846C196.764 134.739 197.192 134.499 197.593 134.177C197.941 133.883 198.182 133.535 198.396 133.134C198.583 132.786 198.797 132.465 199.011 132.144C199.225 131.769 199.493 131.421 199.653 131.02C199.814 130.592 199.921 130.11 199.948 129.655C199.974 129.227 200.028 128.799 200.055 128.371C200.135 127.515 200.215 126.659 200.296 125.802C200.403 124.732 200.483 123.635 200.59 122.565C200.697 121.441 200.804 120.344 200.884 119.22C200.965 118.283 201.045 117.347 201.125 116.41C201.179 115.848 201.232 115.286 201.286 114.725C201.286 114.644 201.312 114.564 201.312 114.51C201.339 114.163 200.991 113.815 200.643 113.842C200.242 113.868 200.001 114.136 199.974 114.51C199.948 114.805 199.921 115.099 199.894 115.42C199.814 116.196 199.76 116.945 199.68 117.721C199.573 118.765 199.493 119.809 199.386 120.852C199.279 121.976 199.172 123.073 199.091 124.197C199.011 125.187 198.904 126.177 198.824 127.194C198.77 127.863 198.69 128.558 198.637 129.227C198.61 129.388 198.61 129.548 198.583 129.709C198.583 129.736 198.583 129.762 198.583 129.789V129.816C198.583 129.843 198.583 129.843 198.583 129.869C198.583 129.95 198.583 129.789 198.583 129.789C198.556 129.869 198.556 129.977 198.53 130.084C198.476 130.271 198.423 130.458 198.369 130.645C198.369 130.672 198.342 130.726 198.316 130.752C198.289 130.833 198.342 130.699 198.342 130.699C198.342 130.699 198.342 130.726 198.316 130.726C198.262 130.779 198.235 130.833 198.208 130.913C198.075 131.127 197.941 131.314 197.834 131.528C197.62 131.876 197.379 132.224 197.192 132.572C197.111 132.706 197.031 132.866 196.951 133C196.871 133.107 197.031 132.92 196.951 133.027C196.924 133.054 196.897 133.107 196.844 133.134C196.764 133.214 196.683 133.268 196.63 133.348C196.576 133.402 196.657 133.321 196.683 133.321C196.657 133.321 196.63 133.348 196.63 133.375C196.576 133.402 196.549 133.428 196.496 133.455C196.416 133.509 196.309 133.562 196.228 133.589C196.175 133.616 196.282 133.562 196.282 133.562C196.255 133.562 196.228 133.589 196.228 133.589C196.175 133.616 196.148 133.616 196.095 133.642C195.988 133.669 195.907 133.696 195.8 133.723C195.666 133.749 195.907 133.723 195.8 133.723C195.747 133.723 195.693 133.723 195.666 133.723C195.559 133.723 195.452 133.723 195.345 133.723C195.319 133.723 195.292 133.723 195.292 133.723C195.185 133.723 195.078 133.723 194.971 133.696C193.981 133.642 192.991 133.616 192.027 133.562C191.546 133.535 191.091 133.509 190.609 133.509C190.475 133.509 190.315 133.482 190.181 133.482C190.154 133.482 190.101 133.482 190.074 133.482C189.967 133.482 190.208 133.509 190.101 133.482C190.047 133.482 190.021 133.455 189.967 133.455L189.914 133.428C189.914 133.428 190.047 133.482 189.967 133.455C189.94 133.455 189.726 133.321 189.726 133.321C189.726 133.321 189.833 133.402 189.78 133.348C189.753 133.321 189.753 133.321 189.726 133.294C189.699 133.268 189.673 133.241 189.646 133.214C189.619 133.187 189.592 133.161 189.566 133.107C189.485 133.027 189.646 133.214 189.566 133.08C189.512 133 189.485 132.947 189.432 132.866C189.405 132.813 189.459 132.947 189.459 132.947C189.459 132.92 189.432 132.92 189.432 132.893C189.432 132.84 189.405 132.813 189.405 132.759C189.405 132.733 189.405 132.733 189.405 132.706C189.378 132.626 189.405 132.866 189.405 132.786C189.405 132.759 189.405 132.706 189.405 132.679C189.405 132.626 189.405 132.759 189.378 132.786C189.378 132.786 189.378 132.759 189.378 132.733C189.378 132.733 189.405 132.706 189.405 132.679C189.405 132.706 189.325 132.813 189.378 132.759C189.592 132.492 189.78 132.197 189.994 131.93C190.288 131.555 190.556 131.181 190.85 130.779C191.037 130.512 191.064 130.137 191.091 129.816C191.091 129.415 191.037 128.986 190.877 128.639C190.743 128.344 190.582 128.077 190.449 127.782C190.101 127.113 189.78 126.444 189.432 125.802C188.977 124.919 188.522 124.01 188.041 123.127C187.532 122.136 187.024 121.12 186.515 120.13C186.034 119.166 185.525 118.23 185.044 117.267C184.642 116.491 184.268 115.741 183.866 114.965C183.625 114.51 183.411 114.056 183.171 113.627C183.144 113.574 183.117 113.52 183.09 113.44C182.93 113.119 182.475 113.012 182.181 113.199C181.752 113.333 181.645 113.708 181.833 114.029Z" fill="black"/>
<path d="M205.887 113.36C206.181 113.895 206.503 114.404 206.797 114.939C207.519 116.196 208.242 117.427 208.991 118.685C209.847 120.156 210.73 121.628 211.587 123.127C212.309 124.357 213.031 125.588 213.754 126.819C213.968 127.194 214.182 127.568 214.423 127.943C214.476 128.05 214.53 128.13 214.61 128.237C214.637 128.264 214.637 128.291 214.664 128.318C214.664 128.318 214.664 128.318 214.664 128.344C214.744 128.451 214.637 128.264 214.69 128.398C214.744 128.558 214.798 128.746 214.824 128.906C214.798 128.772 214.824 128.906 214.824 128.933C214.824 128.987 214.824 129.04 214.824 129.094C214.824 129.201 214.824 129.281 214.824 129.388C214.851 129.281 214.878 129.174 214.905 129.04C214.583 129.629 214.289 130.244 213.968 130.833C213.834 131.074 213.674 131.341 213.593 131.636C213.406 132.412 213.968 133.161 214.557 133.562C214.905 133.803 215.386 133.964 215.814 133.91C216.055 133.883 216.296 133.856 216.537 133.83C217.366 133.749 218.223 133.669 219.052 133.589C219.694 133.535 220.31 133.455 220.952 133.402C221.433 133.348 221.862 133.268 222.316 133.08C222.932 132.786 223.467 132.224 223.761 131.609C223.815 131.502 223.868 131.395 223.895 131.261C223.922 131.234 223.922 131.181 223.922 131.154C223.949 131.02 223.895 131.207 223.895 131.207C223.895 131.181 223.922 131.154 223.922 131.127C223.975 130.993 224.029 130.86 224.082 130.726C224.243 130.324 224.43 129.923 224.591 129.548C224.644 129.415 224.698 129.308 224.751 129.174C224.832 128.987 224.885 128.799 224.912 128.585C224.965 128.211 225.019 127.836 224.992 127.461C224.965 126.846 224.912 126.23 224.885 125.615C224.805 124.25 224.725 122.913 224.644 121.548C224.537 119.809 224.457 118.096 224.35 116.357C224.243 114.591 224.163 112.825 224.056 111.059C223.975 109.641 223.895 108.222 223.815 106.804C223.761 106.082 223.735 105.333 223.681 104.61C223.681 104.583 223.681 104.557 223.681 104.503C223.654 104.155 223.387 103.807 223.012 103.834C222.664 103.861 222.316 104.129 222.343 104.503C222.37 104.797 222.37 105.065 222.397 105.359C222.45 106.109 222.477 106.858 222.531 107.634C222.584 108.704 222.664 109.801 222.718 110.872C222.798 112.129 222.852 113.413 222.932 114.671C223.012 115.982 223.092 117.293 223.146 118.631C223.226 119.862 223.28 121.093 223.36 122.324C223.414 123.314 223.467 124.304 223.521 125.294C223.547 125.909 223.601 126.525 223.628 127.14C223.628 127.274 223.654 127.381 223.654 127.515C223.654 127.649 223.654 127.782 223.654 127.916C223.654 128.023 223.628 128.13 223.628 128.237C223.628 128.264 223.628 128.291 223.628 128.318C223.601 128.451 223.628 128.291 223.628 128.291C223.654 128.318 223.601 128.425 223.601 128.451C223.601 128.505 223.574 128.558 223.574 128.612C223.574 128.719 223.628 128.505 223.628 128.532C223.628 128.558 223.601 128.558 223.601 128.585C223.387 129.094 223.173 129.602 222.959 130.11C222.878 130.271 222.825 130.431 222.745 130.619C222.691 130.726 222.664 130.833 222.638 130.94C222.638 130.967 222.611 130.993 222.611 131.02C222.584 131.1 222.638 130.967 222.638 130.967C222.611 130.993 222.557 131.127 222.531 131.154C222.477 131.261 222.423 131.341 222.37 131.422C222.343 131.475 222.397 131.368 222.397 131.368C222.37 131.395 222.343 131.422 222.343 131.448C222.316 131.502 222.263 131.529 222.209 131.582C222.156 131.636 222.129 131.662 222.076 131.716C222.049 131.743 222.049 131.743 222.022 131.769C221.969 131.823 222.129 131.689 222.049 131.743C221.969 131.796 221.862 131.876 221.755 131.93C221.701 131.957 221.648 131.983 221.621 132.01C221.54 132.064 221.728 131.957 221.647 131.983C221.621 131.983 221.594 132.01 221.594 132.01C221.487 132.064 221.353 132.09 221.246 132.117C221.219 132.117 221.166 132.117 221.166 132.144C221.166 132.144 221.3 132.117 221.219 132.144C221.166 132.144 221.112 132.144 221.059 132.144C221.059 132.144 221.059 132.144 221.032 132.144C220.979 132.144 220.952 132.144 220.898 132.144C220.47 132.197 220.015 132.224 219.587 132.278C218.437 132.385 217.259 132.492 216.109 132.626C216.002 132.626 215.895 132.652 215.788 132.652H215.761C215.734 132.652 215.654 132.626 215.627 132.652C215.654 132.652 215.788 132.679 215.681 132.652C215.654 132.652 215.627 132.652 215.6 132.626C215.573 132.626 215.547 132.599 215.52 132.599C215.466 132.572 215.493 132.599 215.52 132.599C215.52 132.599 215.547 132.599 215.547 132.626C215.52 132.626 215.52 132.599 215.493 132.599C215.466 132.599 215.466 132.572 215.44 132.572C215.386 132.545 215.333 132.519 215.279 132.492C215.199 132.438 215.252 132.492 215.279 132.492C215.359 132.572 215.252 132.465 215.252 132.465C215.226 132.438 215.038 132.251 215.038 132.251C215.065 132.251 215.119 132.358 215.065 132.278C215.038 132.251 215.038 132.224 215.012 132.197C214.985 132.171 214.958 132.09 214.931 132.064C214.931 132.064 214.985 132.197 214.958 132.144C214.958 132.117 214.931 132.09 214.931 132.064C214.931 132.037 214.931 132.037 214.905 132.01C214.878 131.903 214.905 132.064 214.905 132.09C214.905 132.064 214.905 132.01 214.905 131.983C214.905 131.903 214.878 132.144 214.905 132.064C214.931 131.983 214.958 132.01 214.878 132.117C214.958 132.01 215.012 131.876 215.065 131.743C215.333 131.207 215.627 130.672 215.895 130.137C216.002 129.923 216.135 129.709 216.162 129.468C216.216 128.906 216.082 128.264 215.814 127.756C215.627 127.408 215.413 127.087 215.226 126.739C214.744 125.936 214.262 125.107 213.807 124.304C213.165 123.234 212.55 122.137 211.908 121.066C211.239 119.942 210.597 118.819 209.928 117.695C209.366 116.731 208.804 115.768 208.242 114.805C207.894 114.216 207.573 113.654 207.225 113.066C207.172 112.985 207.145 112.905 207.091 112.825C206.904 112.53 206.476 112.397 206.181 112.584C205.807 112.664 205.7 113.039 205.887 113.36Z" fill="black"/>
<path d="M199.894 111.835L194.462 112.156C189.324 112.45 184.401 111.594 179.932 109.801C177.444 108.811 175.089 107.527 172.922 106.002C165.082 100.463 159.65 91.6595 158.687 81.4381C158.633 81.0367 158.606 80.6086 158.58 80.1804L157.884 67.9521L157.028 53.2353C155.931 34.5048 170.273 18.4234 189.003 17.3531L194.435 17.0587C210.918 16.0955 225.34 27.0662 229.301 42.4519C229.461 43.0941 229.622 43.763 229.729 44.432C230.023 45.9304 230.21 47.4556 230.317 49.0343L231.869 75.9795C232.94 94.7099 218.624 110.765 199.894 111.835Z" fill="#FF5534"/>
<path d="M179.023 82.4546C179.879 82.5884 180.762 82.6954 181.645 82.7222C182.421 82.7489 183.197 82.7489 183.973 82.6954C184.054 82.6954 184.107 82.6954 184.187 82.6687C184.214 82.6687 184.241 82.6687 184.294 82.6687C184.321 82.6687 184.375 82.6687 184.401 82.6687C195.666 81.8392 204.229 72.9556 203.667 62.6806L202.998 51.4155C202.918 50.1312 202.704 48.8735 202.383 47.6694C200.081 39.5886 192.027 33.7821 182.582 33.7554C182.475 33.7554 182.341 33.7554 182.234 33.7554C181.886 33.7554 181.538 33.7554 181.19 33.7821C169.738 34.4243 160.908 43.415 161.523 53.797L162.166 65.062C162.166 65.1155 162.166 65.1423 162.166 65.1958C162.487 70.0657 164.975 74.5343 168.909 77.3974L171.611 79.3775C172.762 80.2337 174.019 80.9294 175.357 81.4378" fill="white"/>
<path d="M178.836 83.1236C182.127 83.6587 185.525 83.4982 188.763 82.6419C191.439 81.9195 194.034 80.7154 196.255 79.0564C198.423 77.4509 200.269 75.4708 201.66 73.1696C203.025 70.8952 203.908 68.3265 204.202 65.7042C204.363 64.2325 204.283 62.7876 204.202 61.3159C204.095 59.4964 203.988 57.6769 203.881 55.8573C203.801 54.4659 203.721 53.0478 203.64 51.6564C203.48 49.0073 202.811 46.4654 201.607 44.1107C200.349 41.7025 198.53 39.5618 196.389 37.8761C194.141 36.1101 191.573 34.7989 188.817 34.023C185.873 33.1935 182.743 32.9527 179.692 33.3273C176.829 33.6751 174.046 34.5314 171.504 35.896C169.15 37.1536 167.009 38.8661 165.296 40.9265C163.611 42.9601 162.3 45.288 161.55 47.83C160.962 49.8636 160.748 51.9775 160.855 54.0913C160.935 55.5362 161.015 56.9544 161.095 58.3993C161.202 60.1921 161.31 62.0116 161.417 63.8044C161.524 65.4902 161.631 67.1224 162.085 68.7546C162.915 71.7515 164.601 74.5075 166.875 76.6482C168.213 77.9058 169.765 78.9226 171.21 79.9929C172.441 80.9027 173.779 81.5984 175.17 82.1603C175.518 82.2941 175.893 82.0265 176 81.7054C176.107 81.3308 175.866 81.0097 175.545 80.8759C174.234 80.3675 173.003 79.645 171.852 78.8155C171.183 78.3339 170.514 77.8255 169.845 77.3439C169.069 76.782 168.374 76.2468 167.651 75.5511C166.581 74.5075 165.725 73.4372 164.975 72.1529C163.691 69.9855 162.969 67.5237 162.835 65.062C162.754 63.7777 162.701 62.4933 162.621 61.2357C162.514 59.4161 162.407 57.5698 162.3 55.7503C162.219 54.4659 162.112 53.1816 162.193 51.8972C162.219 51.5761 162.246 51.255 162.273 50.9339C162.273 50.8536 162.3 50.7734 162.3 50.7198C162.3 50.6396 162.3 50.7198 162.3 50.7466C162.3 50.6931 162.3 50.6663 162.326 50.6128C162.353 50.4523 162.38 50.265 162.407 50.1044C162.514 49.489 162.647 48.8736 162.835 48.2581C163.022 47.6427 163.209 47.054 163.45 46.4654C163.45 46.4386 163.477 46.4118 163.477 46.3851C163.53 46.2781 163.45 46.4654 163.477 46.3583C163.504 46.278 163.53 46.2245 163.557 46.1443C163.611 46.0105 163.691 45.8499 163.744 45.7161C163.878 45.4218 164.012 45.1542 164.173 44.8866C164.467 44.3247 164.815 43.7896 165.163 43.2812C165.35 43.0136 165.537 42.7728 165.725 42.5052C165.751 42.4784 165.858 42.3179 165.805 42.4249C165.858 42.3714 165.912 42.2911 165.965 42.2376C166.072 42.1038 166.153 41.9968 166.26 41.863C167.089 40.873 167.999 39.99 169.016 39.1605C169.31 38.9196 169.39 38.8661 169.711 38.6253C169.979 38.438 170.247 38.2507 170.514 38.0634C171.076 37.6888 171.638 37.3677 172.227 37.0466C172.521 36.8861 172.815 36.7255 173.11 36.5917C173.244 36.5114 173.404 36.4579 173.538 36.4044C173.618 36.3777 173.672 36.3509 173.752 36.2974C173.805 36.2706 173.832 36.2706 173.886 36.2439C173.912 36.2439 173.939 36.2171 173.939 36.2171C173.886 36.2439 173.886 36.2439 173.939 36.2171C174.555 35.9495 175.197 35.7355 175.839 35.5214C178.675 34.6384 181.512 34.3441 184.482 34.5849C184.642 34.6116 184.83 34.6116 184.99 34.6384C185.097 34.6384 185.177 34.6652 185.285 34.6652C185.311 34.6652 185.552 34.6919 185.472 34.6919C185.82 34.7454 186.194 34.7989 186.542 34.8525C187.238 34.9863 187.934 35.1468 188.602 35.3341C189.271 35.5214 189.94 35.7622 190.583 36.003C191.144 36.2171 191.76 36.5114 192.375 36.8058C194.757 38.0366 196.764 39.6154 198.503 41.7025C198.61 41.8363 198.717 41.97 198.824 42.0771C198.824 42.0771 198.904 42.1573 198.851 42.1038C198.797 42.0503 198.877 42.1573 198.904 42.1573C198.958 42.2376 199.011 42.2911 199.065 42.3714C199.252 42.639 199.439 42.9066 199.627 43.1741C199.975 43.7093 200.322 44.298 200.617 44.8599C200.938 45.5021 201.152 45.957 201.366 46.5724C201.634 47.2681 201.848 47.9638 202.008 48.6863C202.356 50.1847 202.41 51.7366 202.517 53.2618C202.624 55.1081 202.731 56.9277 202.838 58.7739C202.918 60.0583 202.998 61.3159 203.052 62.6003C203.105 63.5636 203.078 64.5269 202.998 65.4634C202.971 65.6239 202.971 65.7577 202.945 65.9183C202.971 65.7845 202.945 65.9986 202.918 66.0253C202.918 66.1056 202.891 66.1859 202.891 66.2661C202.838 66.5872 202.784 66.8816 202.704 67.2027C202.57 67.8181 202.383 68.4335 202.195 69.0222C202.088 69.3165 201.981 69.6109 201.874 69.9052C201.848 69.9855 201.821 70.039 201.794 70.1193C201.741 70.253 201.767 70.1728 201.794 70.146C201.767 70.1728 201.767 70.2263 201.741 70.253C201.687 70.3868 201.607 70.5474 201.553 70.6812C201.286 71.2431 200.991 71.805 200.67 72.3669C200.349 72.9021 200.001 73.4372 199.6 73.9456C199.546 73.9991 199.52 74.0527 199.466 74.1329C199.466 74.1597 199.386 74.24 199.466 74.1597C199.439 74.1864 199.439 74.2132 199.413 74.24C199.306 74.3738 199.199 74.5075 199.092 74.6413C198.877 74.8822 198.663 75.123 198.449 75.3638C198.021 75.8454 197.566 76.3003 197.085 76.7284C196.603 77.1833 196.095 77.5579 195.667 77.9058C194.596 78.6818 193.472 79.3775 192.295 79.9394C191.118 80.5013 189.887 80.9562 188.549 81.3308C187.88 81.5181 187.184 81.6519 186.489 81.7857C186.114 81.8392 185.846 81.8927 185.525 81.9195C185.177 81.973 184.83 81.9997 184.482 82.0265C182.769 82.1603 181.03 82.08 179.344 81.8124C178.996 81.7589 178.622 81.8927 178.515 82.2673C178.301 82.6152 178.488 83.0433 178.836 83.1236Z" fill="black"/>
<path d="M204.121 47.6428C204.469 48.8469 204.683 50.1045 204.764 51.3889L205.406 62.6539C205.995 72.9557 197.352 81.8393 186.06 82.642C186.006 82.642 185.98 82.642 185.953 82.642C185.873 82.642 185.819 82.642 185.739 82.6688C185.284 82.6955 184.829 82.7223 184.401 82.6955C195.666 81.866 204.229 72.9824 203.667 62.7074L202.998 51.4424C202.917 50.158 202.703 48.9004 202.355 47.6963C200.054 39.6154 192 33.809 182.555 33.7822C182.688 33.7555 182.796 33.7555 182.929 33.7555C183.277 33.7287 183.625 33.7287 183.973 33.7287C193.552 33.5949 201.794 39.4549 204.121 47.6428Z" fill="black"/>
<path d="M184.963 87.7795C185.07 89.7863 185.338 91.7932 185.766 93.7465C186.274 96.1279 187.024 98.4559 187.987 100.73C188.469 101.827 188.977 102.924 189.566 103.995C189.726 104.289 190.181 104.423 190.475 104.236C190.797 104.021 190.904 103.647 190.716 103.326C190.208 102.416 189.753 101.479 189.325 100.516C189.271 100.382 189.218 100.249 189.164 100.142C189.164 100.115 189.084 99.9275 189.138 100.061C189.111 99.9811 189.084 99.9008 189.031 99.8473C188.924 99.5797 188.816 99.3121 188.709 99.0445C188.495 98.4826 188.281 97.8939 188.094 97.332C187.398 95.2182 186.89 93.024 186.569 90.8031C186.569 90.7228 186.542 90.6693 186.542 90.5891C186.542 90.6158 186.569 90.7496 186.542 90.6158C186.542 90.5891 186.542 90.5355 186.542 90.5088C186.515 90.375 186.515 90.2412 186.489 90.1074C186.462 89.8398 186.435 89.5723 186.408 89.3314C186.355 88.8498 186.328 88.3414 186.301 87.8598C186.274 87.5119 186.007 87.1641 185.632 87.1908C185.284 87.1373 184.937 87.4316 184.963 87.7795Z" fill="black"/>
<path d="M169.792 54.6266C169.899 54.5731 170.033 54.5463 170.14 54.5196C170.22 54.4928 170.274 54.4928 170.354 54.4661C170.381 54.4661 170.408 54.4661 170.434 54.4661C170.488 54.4661 170.461 54.4661 170.381 54.4661C170.408 54.4393 170.461 54.4661 170.515 54.4661C170.622 54.4661 170.729 54.4661 170.836 54.4661C170.889 54.4661 170.943 54.4661 170.996 54.4661C171.05 54.4661 171.13 54.4928 171.05 54.4661C171.237 54.4928 171.451 54.5463 171.638 54.6266C171.558 54.5999 171.745 54.6801 171.638 54.6266C171.665 54.6534 171.719 54.6534 171.745 54.6801C171.826 54.7069 171.906 54.7604 171.959 54.8139C172.013 54.8407 172.093 54.8942 172.147 54.9477C172.174 54.9745 172.254 55.028 172.174 54.9745C172.093 54.8942 172.174 54.9745 172.2 55.0012C172.361 55.135 172.495 55.2688 172.602 55.4026C172.816 55.6702 173.324 55.6434 173.538 55.4026C173.806 55.1083 173.779 54.7337 173.538 54.4661C172.575 53.3155 170.889 52.8606 169.444 53.3958C169.123 53.5296 168.856 53.8506 168.989 54.2253C169.07 54.4661 169.444 54.7604 169.792 54.6266Z" fill="black"/>
<path d="M184.99 55.0011C185.044 54.8941 185.071 54.8138 185.124 54.7336C185.151 54.68 185.204 54.6265 185.231 54.573C185.258 54.5462 185.285 54.5195 185.285 54.466C185.365 54.3589 185.204 54.5462 185.258 54.4927C185.365 54.3589 185.499 54.2252 185.632 54.1181C185.659 54.1181 185.766 54.0111 185.686 54.0646C185.606 54.1181 185.739 54.0379 185.739 54.0111C185.846 53.9576 185.927 53.8773 186.034 53.8238C186.087 53.797 186.114 53.7703 186.168 53.7703C186.194 53.7703 186.221 53.7435 186.248 53.7435C186.168 53.7703 186.168 53.7703 186.221 53.7703C186.301 53.7435 186.382 53.7168 186.489 53.69C186.569 53.6632 186.649 53.6365 186.729 53.6365C186.783 53.6365 186.81 53.6097 186.863 53.6097C186.97 53.583 186.89 53.6097 186.837 53.6097C186.944 53.6365 187.104 53.583 187.211 53.583C187.291 53.583 187.398 53.583 187.479 53.6097C187.827 53.6365 188.174 53.2886 188.148 52.9408C188.121 52.5394 187.853 52.2986 187.479 52.2718C185.98 52.138 184.455 52.9943 183.813 54.3589C183.679 54.68 183.706 55.0814 184.054 55.2687C184.348 55.4025 184.83 55.3222 184.99 55.0011Z" fill="black"/>
<path d="M170.808 60.9681C169.711 60.9949 168.775 60.1386 168.748 59.0148L168.721 58.2656C168.695 57.1685 169.551 56.232 170.675 56.2052C171.772 56.1785 172.708 57.0347 172.735 58.1586L172.762 58.9078C172.789 60.0316 171.905 60.9414 170.808 60.9681Z" fill="black"/>
<path d="M169.925 74.6147C169.925 74.6414 169.978 74.7217 169.951 74.7485C169.898 74.802 169.764 74.7217 169.711 74.695C169.443 74.5612 162.994 69.9321 164.386 65.4368C164.707 64.42 165.483 63.2961 165.991 63.4032C166.58 63.5102 166.205 65.0086 166.981 67.3366C167.57 69.2096 169.818 74.3471 169.925 74.6147Z" fill="#FFD405"/>
<path d="M188.147 60.4598C187.05 60.4866 186.114 59.6303 186.087 58.5065L186.06 57.7573C186.033 56.6602 186.89 55.7237 188.014 55.6969C189.111 55.6701 190.047 56.5264 190.074 57.6502L190.101 58.3994C190.101 59.5233 189.244 60.433 188.147 60.4598Z" fill="black"/>
<path d="M182.902 62.3329C184.24 62.44 185.096 63.6708 184.856 64.7144C184.642 65.6776 183.571 66.2396 182.635 66.186C181.645 66.1325 180.788 65.4101 180.494 64.3933" fill="#D2846D"/>
<path d="M178.086 101.158L169.096 93.3718L198.85 58.4796L208.456 66.7477L178.086 101.158Z" fill="white"/>
<path d="M207.574 67.3902C217.902 55.4027 225.769 46.0375 236.071 33.5683C237.542 31.8023 237.462 29.3138 235.937 27.9759L233.288 25.6748C231.763 24.3636 229.328 24.6312 227.776 26.2902C210.571 44.7531 193.419 64.5539 178.648 82.214" fill="white"/>
<path d="M208.028 67.8717C211.106 64.313 214.183 60.7274 217.233 57.1151C220.123 53.7169 223.013 50.2919 225.876 46.8669C228.9 43.2546 231.896 39.6423 234.893 36.0032C235.295 35.5216 235.696 35.0399 236.071 34.5583C236.445 34.1034 236.82 33.6753 237.114 33.1669C237.569 32.3374 237.837 31.3473 237.756 30.3841C237.676 29.4208 237.328 28.511 236.686 27.7618C236.419 27.4675 236.097 27.1999 235.803 26.9591C235.054 26.3169 234.331 25.6212 233.555 25.0325C232.057 23.8551 229.916 23.9087 228.338 24.9255C227.374 25.5409 226.625 26.5042 225.849 27.3337C225.02 28.2167 224.19 29.1264 223.361 30.0094C221.675 31.829 219.989 33.6753 218.33 35.5216C215.012 39.1874 211.721 42.8532 208.43 46.5458C205.165 50.2116 201.928 53.9042 198.69 57.6235C195.533 61.2626 192.402 64.9016 189.271 68.5675C186.248 72.0995 183.251 75.6583 180.254 79.2171C179.558 80.0466 178.836 80.9028 178.14 81.7591C177.899 82.0266 177.872 82.428 178.14 82.6956C178.381 82.9364 178.862 82.9632 179.077 82.6956C181.966 79.2438 184.883 75.7921 187.8 72.3403C190.85 68.7548 193.9 65.196 196.978 61.6372C200.108 57.9981 203.266 54.3858 206.45 50.8003C209.661 47.1612 212.898 43.5221 216.163 39.9366C219.427 36.3243 222.692 32.7387 225.983 29.18C226.786 28.3237 227.562 27.3872 228.418 26.5577C228.739 26.2634 229.087 26.0225 229.488 25.8352C229.622 25.7817 229.783 25.7014 229.97 25.6479C230.077 25.6212 230.184 25.5944 230.264 25.5676C230.318 25.5676 230.371 25.5409 230.425 25.5409C230.452 25.5409 230.585 25.5141 230.505 25.5141C231.308 25.4071 232.03 25.5676 232.672 26.0493C232.886 26.2098 233.208 26.5042 233.448 26.7182C234.171 27.3337 234.947 27.9223 235.616 28.5913C236.151 29.1264 236.445 29.8757 236.445 30.6249C236.472 31.4544 236.178 32.3106 235.643 33.0063C234.947 33.9428 234.144 34.8259 233.395 35.7356C232.646 36.6454 231.896 37.5551 231.12 38.4649C229.649 40.2309 228.177 42.0237 226.705 43.7897C223.896 47.1612 221.06 50.5327 218.223 53.8774C215.307 57.3292 212.363 60.7809 209.393 64.2059C208.617 65.0889 207.868 65.9987 207.092 66.8817C206.851 67.1493 206.824 67.5507 207.092 67.8182C207.333 68.1126 207.814 68.1393 208.028 67.8717Z" fill="black"/>
<path d="M200.536 76.461C191.224 87.1641 179.504 99.4727 170.166 109.801C168.614 111.514 166.152 111.808 164.6 110.47L161.924 108.142C160.399 106.831 160.319 104.396 161.71 102.63C165.376 97.9743 167.543 95.245 171.423 90.5356" fill="white"/>
<path d="M200.081 76.006C198.288 78.0663 196.495 80.0732 194.676 82.1068C192.776 84.2206 190.876 86.3077 188.976 88.3681C187.05 90.482 185.097 92.5958 183.143 94.7097C181.217 96.7968 179.29 98.8839 177.364 100.971C175.517 102.978 173.671 104.985 171.825 107.018C171.37 107.5 170.942 107.982 170.487 108.49C170.059 108.945 169.657 109.453 169.176 109.855C169.149 109.881 169.122 109.908 169.095 109.935C169.095 109.935 169.176 109.881 169.122 109.908C169.069 109.962 168.988 109.988 168.935 110.042C168.828 110.122 168.694 110.202 168.587 110.256C168.533 110.283 168.453 110.336 168.4 110.363C168.373 110.363 168.212 110.443 168.293 110.417C168.373 110.39 168.266 110.417 168.239 110.443C168.212 110.443 168.186 110.47 168.159 110.47C168.079 110.497 167.998 110.524 167.918 110.55C167.784 110.577 167.65 110.631 167.543 110.657C167.49 110.657 167.41 110.684 167.356 110.684C167.276 110.711 167.41 110.684 167.41 110.684C167.356 110.684 167.329 110.684 167.276 110.684C167.008 110.711 166.741 110.684 166.473 110.684C166.607 110.684 166.5 110.684 166.42 110.684C166.366 110.684 166.313 110.657 166.232 110.657C166.099 110.631 165.965 110.577 165.831 110.55C165.804 110.55 165.777 110.524 165.724 110.524C165.724 110.524 165.831 110.577 165.777 110.55C165.724 110.524 165.644 110.497 165.59 110.47C165.483 110.417 165.376 110.336 165.269 110.283C165.242 110.256 165.055 110.122 165.189 110.229C165.135 110.202 165.108 110.176 165.055 110.122L165.028 110.095C164.975 110.042 164.921 109.988 164.841 109.935C164.306 109.48 163.771 109.025 163.235 108.57C162.834 108.222 162.406 107.901 162.058 107.5C162.005 107.446 161.978 107.393 161.924 107.339C162.005 107.446 161.924 107.313 161.898 107.286C161.817 107.179 161.737 107.045 161.683 106.938C161.657 106.884 161.63 106.831 161.603 106.777C161.55 106.67 161.603 106.777 161.603 106.804C161.603 106.777 161.576 106.751 161.576 106.697C161.523 106.563 161.496 106.456 161.469 106.323C161.443 106.189 161.416 106.055 161.389 105.921C161.416 106.055 161.389 105.921 161.389 105.868C161.389 105.787 161.389 105.707 161.389 105.627C161.389 105.493 161.389 105.386 161.389 105.252C161.389 105.172 161.389 105.118 161.416 105.038C161.389 105.172 161.416 104.985 161.443 104.931C161.496 104.664 161.576 104.396 161.683 104.128C161.683 104.102 161.737 104.021 161.683 104.128C161.71 104.102 161.71 104.048 161.737 104.021C161.764 103.968 161.791 103.888 161.817 103.834C161.898 103.7 161.978 103.567 162.058 103.433C162.085 103.379 162.138 103.326 162.165 103.272C162.192 103.245 162.245 103.165 162.165 103.272C162.192 103.245 162.219 103.192 162.245 103.165C162.352 103.031 162.459 102.871 162.593 102.737C162.807 102.443 163.048 102.148 163.262 101.881C164.065 100.864 164.868 99.8472 165.67 98.8304C167.249 96.8236 168.855 94.8435 170.487 92.8634C170.942 92.3015 171.397 91.7396 171.851 91.1777C172.066 90.9101 172.146 90.482 171.851 90.2411C171.611 90.0271 171.129 89.9468 170.915 90.2411C169.202 92.355 167.463 94.4421 165.777 96.5827C164.975 97.5728 164.199 98.5628 163.396 99.5796C162.968 100.115 162.54 100.677 162.112 101.212C161.657 101.801 161.148 102.362 160.774 102.978C160.132 104.075 159.864 105.386 160.158 106.644C160.372 107.553 160.881 108.329 161.576 108.918C162.085 109.373 162.62 109.801 163.128 110.256C163.557 110.631 163.985 111.032 164.44 111.353C165.403 112.076 166.66 112.263 167.838 112.049C168.426 111.942 168.988 111.701 169.497 111.407C170.059 111.059 170.514 110.604 170.942 110.122C172.788 108.089 174.634 106.082 176.481 104.075C178.434 101.961 180.36 99.8472 182.314 97.7601C184.294 95.6195 186.274 93.4521 188.254 91.3114C190.207 89.1708 192.187 87.0302 194.114 84.8896C195.987 82.8025 197.86 80.7154 199.706 78.6282C200.134 78.1466 200.563 77.6382 200.991 77.1566C201.232 76.889 201.258 76.4609 200.991 76.22C200.777 75.7652 200.322 75.7116 200.081 76.006Z" fill="black"/>
<path d="M162.192 127.622C161.657 128.13 161.069 128.612 160.426 129.04C156.814 131.475 149.991 133.776 145.843 130.592C144.586 129.629 143.89 128.398 143.462 127.408C144.104 127.14 145.067 126.605 145.549 125.588C146.057 124.545 145.817 123.474 145.763 123.153C145.496 121.601 145.95 119.006 147.021 116.464C146.726 117.427 146.352 119.702 147.315 122.083C147.502 122.591 147.877 123.448 148.706 124.25C149.75 125.241 150.954 125.615 151.73 125.749C152.078 125.802 152.372 126.043 152.533 126.364C152.827 127.06 153.336 127.863 154.138 128.451C156.199 129.95 159.463 129.656 162.192 127.622Z" fill="#FFD405"/>
<path d="M161.737 127.14C161.416 127.435 161.068 127.729 160.72 127.997C160.827 127.916 160.667 128.023 160.667 128.05C160.613 128.077 160.586 128.104 160.533 128.13C160.453 128.211 160.346 128.264 160.265 128.318C160.132 128.425 159.998 128.505 159.837 128.585C159.329 128.933 158.794 129.227 158.232 129.495C157.937 129.629 157.643 129.789 157.349 129.923C157.268 129.95 157.188 130.003 157.108 130.03C157.054 130.057 156.84 130.164 157.001 130.084C156.84 130.164 156.68 130.217 156.519 130.271C155.877 130.539 155.208 130.753 154.512 130.94C154.165 131.02 153.817 131.1 153.469 131.181C153.308 131.208 153.148 131.234 152.987 131.261C152.88 131.288 152.8 131.288 152.693 131.315C152.666 131.315 152.639 131.315 152.586 131.341C152.559 131.341 152.532 131.341 152.479 131.368C152.586 131.368 152.586 131.341 152.506 131.368C151.837 131.448 151.141 131.502 150.472 131.475C150.311 131.475 150.124 131.448 149.964 131.448C149.883 131.448 149.803 131.448 149.723 131.422C149.669 131.422 149.642 131.422 149.589 131.395C149.402 131.395 149.535 131.395 149.589 131.395C149.428 131.395 149.241 131.341 149.081 131.315C148.92 131.288 148.759 131.234 148.599 131.208C148.278 131.127 147.957 131.02 147.662 130.913C147.636 130.886 147.582 130.886 147.555 130.86C147.475 130.833 147.716 130.94 147.582 130.86C147.502 130.833 147.448 130.806 147.368 130.779C147.207 130.699 147.047 130.619 146.886 130.539C146.726 130.458 146.565 130.351 146.432 130.244C146.351 130.191 146.271 130.137 146.217 130.084C146.191 130.057 146.084 129.977 146.191 130.057C146.137 130.03 146.11 129.977 146.057 129.95C145.709 129.656 145.361 129.308 145.067 128.96C145.04 128.933 145.013 128.906 145.013 128.88C144.96 128.826 144.96 128.826 145.013 128.88C144.987 128.853 144.96 128.826 144.96 128.799C144.906 128.719 144.826 128.639 144.773 128.558C144.665 128.398 144.558 128.237 144.451 128.05C144.264 127.729 144.104 127.381 143.943 127.06C143.863 127.354 143.782 127.675 143.702 127.97C144.371 127.675 145.04 127.274 145.522 126.712C146.164 125.936 146.512 125 146.458 123.983C146.458 123.635 146.405 123.314 146.324 122.993C146.324 122.939 146.298 122.699 146.298 122.913C146.298 122.832 146.271 122.779 146.271 122.699C146.244 122.511 146.244 122.351 146.244 122.163C146.244 121.789 146.271 121.387 146.324 121.013C146.324 120.986 146.324 120.933 146.324 120.906C146.298 121.093 146.324 120.906 146.324 120.879C146.351 120.772 146.351 120.665 146.378 120.558C146.405 120.344 146.458 120.103 146.512 119.889C146.619 119.354 146.779 118.845 146.94 118.31C147.02 118.043 147.1 117.802 147.207 117.534C147.261 117.4 147.315 117.267 147.368 117.106C147.395 117.053 147.422 116.999 147.448 116.919C147.475 116.892 147.475 116.839 147.502 116.812C147.475 116.865 147.475 116.865 147.502 116.785C147.1 116.625 146.699 116.437 146.271 116.277C146.084 116.919 145.977 117.588 145.95 118.257C145.896 119.193 145.977 120.13 146.191 121.04C146.378 121.869 146.699 122.699 147.127 123.421C147.636 124.277 148.331 125 149.188 125.508C149.857 125.909 150.606 126.204 151.382 126.338C151.462 126.364 151.542 126.364 151.596 126.391H151.623C151.703 126.418 151.676 126.418 151.596 126.364C151.623 126.364 151.703 126.418 151.73 126.445C151.649 126.338 151.863 126.525 151.73 126.445C151.756 126.471 151.863 126.552 151.756 126.445C151.837 126.498 151.863 126.659 151.917 126.739C152.077 127.087 152.265 127.435 152.506 127.756C153.041 128.478 153.71 129.094 154.539 129.468C155.288 129.816 156.064 130.003 156.894 130.03C158.901 130.137 160.881 129.361 162.486 128.184C162.754 127.97 162.941 127.595 162.727 127.274C162.54 127.007 162.112 126.819 161.817 127.033C161.443 127.301 161.068 127.568 160.667 127.783C160.479 127.89 160.319 127.97 160.132 128.05C160.078 128.077 160.024 128.104 159.971 128.13C159.944 128.13 159.784 128.211 159.944 128.157C159.837 128.184 159.757 128.237 159.65 128.264C159.275 128.398 158.901 128.505 158.499 128.585C158.392 128.612 158.312 128.612 158.205 128.639C158.151 128.639 158.098 128.666 158.044 128.666C157.884 128.692 158.205 128.639 158.018 128.666C157.83 128.692 157.643 128.692 157.429 128.719C157.242 128.719 157.081 128.719 156.894 128.719C156.814 128.719 156.707 128.719 156.626 128.692C156.599 128.692 156.573 128.692 156.546 128.692C156.519 128.692 156.492 128.692 156.466 128.692C156.573 128.719 156.573 128.719 156.519 128.692C156.171 128.639 155.823 128.558 155.502 128.425C155.476 128.425 155.422 128.398 155.395 128.398C155.369 128.398 155.369 128.398 155.342 128.371C155.262 128.344 155.288 128.344 155.369 128.398C155.315 128.398 155.181 128.318 155.128 128.291C154.967 128.211 154.807 128.13 154.673 128.023C154.619 127.997 154.539 127.943 154.486 127.89C154.459 127.863 154.352 127.783 154.459 127.863C154.405 127.836 154.379 127.783 154.325 127.756C154.165 127.622 154.004 127.461 153.87 127.301C153.843 127.247 153.79 127.221 153.763 127.167C153.656 127.033 153.843 127.274 153.736 127.14C153.683 127.06 153.629 127.007 153.576 126.926C153.469 126.766 153.362 126.578 153.255 126.391C153.174 126.231 153.121 126.07 153.041 125.909C152.907 125.669 152.72 125.481 152.479 125.321C152.158 125.107 151.81 125.08 151.435 124.973C151.275 124.946 151.141 124.893 150.98 124.839C150.9 124.812 150.82 124.786 150.713 124.759C150.659 124.732 150.632 124.732 150.579 124.705C150.499 124.679 150.525 124.679 150.606 124.705C150.579 124.705 150.552 124.679 150.525 124.679C150.151 124.518 149.803 124.304 149.482 124.063C149.616 124.143 149.455 124.036 149.428 124.036C149.402 124.01 149.348 123.983 149.321 123.929C149.241 123.849 149.161 123.769 149.081 123.715C149 123.635 148.92 123.528 148.813 123.448C148.786 123.421 148.759 123.367 148.706 123.341C148.679 123.314 148.572 123.153 148.652 123.287C148.412 122.966 148.224 122.645 148.037 122.297C148.01 122.244 147.983 122.19 147.957 122.11C147.93 122.056 147.876 121.949 147.957 122.137C147.957 122.11 147.93 122.083 147.93 122.03C147.85 121.816 147.769 121.628 147.716 121.414C147.636 121.147 147.555 120.879 147.502 120.611C147.475 120.478 147.448 120.344 147.422 120.237C147.422 120.183 147.395 120.13 147.395 120.103C147.395 120.076 147.368 119.835 147.368 119.996C147.315 119.514 147.288 119.059 147.288 118.578C147.288 118.364 147.315 118.15 147.315 117.962C147.315 117.909 147.315 117.882 147.341 117.829C147.341 117.775 147.395 117.588 147.341 117.802C147.368 117.722 147.368 117.641 147.368 117.561C147.422 117.267 147.475 116.972 147.582 116.678C147.689 116.357 147.502 116.009 147.207 115.902C146.94 115.795 146.512 115.875 146.378 116.17C145.629 117.909 145.067 119.782 144.96 121.708C144.933 122.377 144.987 123.02 145.094 123.662C145.094 123.715 145.094 123.796 145.094 123.608C145.094 123.635 145.094 123.689 145.12 123.715C145.12 123.796 145.147 123.903 145.147 123.983C145.147 124.17 145.174 124.411 145.12 124.598C145.174 124.438 145.12 124.625 145.12 124.652C145.12 124.679 145.094 124.732 145.094 124.759C145.067 124.866 145.04 125 144.987 125.107C144.987 125.107 144.906 125.294 144.96 125.187C144.933 125.241 144.906 125.294 144.88 125.348C144.826 125.455 144.773 125.535 144.719 125.615C144.692 125.669 144.665 125.695 144.639 125.749C144.585 125.802 144.585 125.802 144.639 125.722C144.612 125.749 144.585 125.776 144.585 125.802C144.532 125.883 144.451 125.963 144.371 126.016C144.291 126.097 144.211 126.177 144.13 126.231L144.104 126.257C144.05 126.311 144.05 126.284 144.13 126.231C144.104 126.257 144.05 126.284 144.023 126.311C143.729 126.525 143.408 126.685 143.06 126.846C142.926 126.899 142.792 127.114 142.766 127.247C142.712 127.435 142.766 127.595 142.846 127.756C143.488 129.227 144.478 130.539 145.843 131.448C147.047 132.278 148.492 132.679 149.937 132.813C151.408 132.947 152.907 132.786 154.325 132.438C155.743 132.117 157.135 131.609 158.446 130.967C159.971 130.244 161.416 129.308 162.647 128.13C162.914 127.89 162.914 127.435 162.647 127.194C162.406 126.9 162.005 126.899 161.737 127.14Z" fill="#FFD405"/>
<path d="M146.726 117.079C147.074 117.079 147.422 116.785 147.395 116.41C147.368 116.036 147.101 115.741 146.726 115.741C146.378 115.741 146.03 116.036 146.057 116.41C146.084 116.785 146.351 117.079 146.726 117.079Z" fill="black"/>
<path d="M161.416 127.113C161.068 127.434 160.721 127.729 160.373 127.996C160.426 127.97 160.453 127.916 160.506 127.889C160.266 128.077 160.025 128.237 159.784 128.424C159.65 128.531 159.516 128.639 159.49 128.826C159.436 128.986 159.463 129.2 159.57 129.334C159.65 129.468 159.811 129.602 159.971 129.629C160.132 129.655 160.346 129.655 160.48 129.548C161.149 129.093 161.791 128.585 162.379 128.023C162.647 127.782 162.647 127.327 162.379 127.087C162.085 126.846 161.711 126.846 161.416 127.113Z" fill="black"/>
<path d="M147.315 116.758C147.823 115.581 148.439 114.457 149.188 113.44C149.241 113.387 149.268 113.333 149.322 113.28C149.349 113.253 149.429 113.146 149.322 113.253C149.349 113.226 149.375 113.2 149.402 113.173C149.509 113.039 149.616 112.932 149.723 112.798C149.937 112.557 150.151 112.343 150.365 112.102C150.579 111.888 150.82 111.674 151.034 111.487C151.088 111.433 151.141 111.407 151.195 111.353C151.222 111.326 151.248 111.3 151.275 111.3C151.168 111.38 151.248 111.326 151.275 111.3C151.409 111.219 151.516 111.112 151.65 111.032C151.891 110.872 152.158 110.711 152.426 110.577C152.533 110.524 152.666 110.47 152.774 110.39C152.827 110.363 152.907 110.336 152.961 110.31C152.988 110.31 153.014 110.283 153.041 110.283C152.961 110.31 152.988 110.31 153.041 110.283C153.576 110.069 154.111 109.908 154.647 109.748C155.182 109.614 155.717 109.507 156.225 109.4C156.332 109.373 156.466 109.373 156.573 109.346C156.627 109.346 156.707 109.32 156.76 109.32C156.787 109.32 156.814 109.32 156.841 109.32C156.867 109.32 157.028 109.293 156.894 109.32C156.76 109.346 156.974 109.32 156.974 109.32C157.028 109.32 157.082 109.293 157.162 109.293C157.269 109.293 157.376 109.266 157.51 109.266C158.045 109.213 158.58 109.159 159.142 109.159C159.49 109.159 159.838 108.865 159.811 108.49C159.784 108.142 159.516 107.821 159.142 107.821C157.617 107.848 156.091 108.062 154.62 108.41C153.469 108.677 152.319 109.079 151.302 109.694C150.205 110.363 149.215 111.273 148.412 112.29C147.475 113.467 146.699 114.778 146.111 116.17C146.031 116.33 146.004 116.491 146.031 116.678C146.084 116.839 146.191 116.999 146.325 117.079C146.673 117.133 147.154 117.079 147.315 116.758Z" fill="black"/>
<path d="M166.795 112.905C166.795 113.333 166.795 113.761 166.768 114.216C166.741 114.591 166.715 114.965 166.688 115.34C166.661 115.554 166.634 115.795 166.608 116.009C166.608 116.062 166.581 116.143 166.581 116.196C166.581 116.25 166.554 116.33 166.581 116.116C166.581 116.143 166.581 116.169 166.554 116.223C166.527 116.357 166.527 116.464 166.5 116.597C166.34 117.721 166.072 118.818 165.751 119.915C165.564 120.531 165.35 121.12 165.109 121.708C165.056 121.842 165.163 121.574 165.109 121.708C165.109 121.735 165.082 121.762 165.082 121.789C165.056 121.869 165.002 121.949 164.975 122.029C164.895 122.19 164.842 122.324 164.761 122.484C164.627 122.779 164.467 123.1 164.306 123.394C163.932 124.09 163.477 124.759 163.022 125.374C162.915 125.508 163.102 125.267 162.995 125.401C162.968 125.428 162.942 125.481 162.915 125.508C162.861 125.588 162.781 125.668 162.728 125.749C162.594 125.909 162.46 126.07 162.3 126.23C162.005 126.551 161.711 126.846 161.417 127.14C161.149 127.381 161.149 127.836 161.417 128.077C161.684 128.317 162.085 128.344 162.353 128.077C164.467 126.097 165.965 123.528 166.902 120.772C167.571 118.765 167.972 116.651 168.079 114.537C168.106 114.002 168.133 113.494 168.106 112.958C168.106 112.611 167.812 112.263 167.437 112.289C167.116 112.263 166.768 112.53 166.795 112.905Z" fill="black"/>
<path d="M175.866 62.306C176.187 63.1087 176.668 63.7776 177.364 64.286C177.98 64.7409 178.702 65.0085 179.451 65.0888C180.789 65.2226 182.1 64.5536 182.903 63.5101C183.117 63.2425 183.331 62.9482 183.465 62.6271C183.599 62.306 183.572 61.9046 183.224 61.7173C182.93 61.5567 182.448 61.6103 182.314 61.9581C182.234 62.1454 182.1 62.3327 181.993 62.52C181.966 62.5468 181.94 62.6003 181.913 62.6271C181.806 62.7608 182.02 62.4933 181.913 62.6271C181.833 62.7073 181.752 62.8144 181.672 62.8946C181.592 62.9749 181.512 63.0552 181.431 63.1355C181.378 63.189 181.324 63.2157 181.298 63.2692C181.405 63.1622 181.378 63.2157 181.351 63.2425C181.324 63.2692 181.271 63.296 181.244 63.3228C181.137 63.403 181.03 63.4565 180.923 63.5101C180.896 63.5101 180.736 63.5903 180.736 63.5903C180.736 63.5636 180.869 63.5368 180.789 63.5636C180.736 63.5903 180.682 63.5903 180.655 63.6171C180.522 63.6706 180.388 63.6974 180.227 63.7241C180.227 63.7241 180.067 63.7509 180.174 63.7241C180.281 63.6974 180.147 63.7241 180.12 63.7241C180.04 63.7241 179.96 63.7241 179.879 63.7241C179.746 63.7241 179.585 63.6974 179.451 63.6974C179.665 63.6974 179.398 63.6974 179.371 63.6706C179.291 63.6439 179.21 63.6439 179.13 63.6171C179.077 63.5903 178.996 63.5636 178.943 63.5636C178.916 63.5636 178.836 63.5368 178.809 63.5101C178.809 63.5101 178.943 63.5636 178.836 63.5101C178.675 63.4298 178.541 63.3495 178.381 63.2692C178.327 63.2157 178.247 63.189 178.194 63.1355C178.06 63.0552 178.301 63.2425 178.194 63.1355C178.167 63.1087 178.113 63.0819 178.087 63.0552C177.953 62.9481 177.846 62.8144 177.712 62.6806C177.685 62.6538 177.658 62.6271 177.632 62.6003C177.605 62.5735 177.605 62.5735 177.658 62.6271C177.632 62.6003 177.632 62.5735 177.605 62.5468C177.551 62.4933 177.525 62.413 177.471 62.3327C177.418 62.2524 177.364 62.1722 177.337 62.0651C177.311 62.0384 177.311 62.0116 177.284 61.9849C177.257 61.9581 177.177 61.744 177.257 61.9046C177.123 61.5835 176.802 61.3159 176.428 61.4497C176.026 61.5835 175.732 61.9581 175.866 62.306Z" fill="black"/>
<path d="M179.852 39.0803C174.688 45.2346 161.604 50.8538 155.77 45.3149C153.068 42.7729 151.864 37.7692 153.79 35.2807C157.269 30.7587 170.327 34.3442 170.38 33.9696C170.407 33.7823 167.223 33.8358 166.126 31.9628C165.109 30.2503 165.965 27.0661 167.597 26.4774C169.551 25.7549 170.755 29.501 176.267 31.8022C179.29 33.0598 181.19 32.8725 181.779 34.2907C182.394 35.9764 180.602 38.1706 179.852 39.0803Z" fill="black"/>
<path d="M159.891 45.8232C160.293 45.9302 160.721 46.0105 161.149 46.0373C161.229 46.0373 161.336 46.0105 161.416 45.9838C161.497 45.957 161.577 45.9035 161.63 45.85C161.738 45.7429 161.845 45.5556 161.818 45.3683C161.818 45.2078 161.764 45.0205 161.63 44.8867C161.577 44.8599 161.55 44.8064 161.497 44.7797C161.39 44.7261 161.283 44.6994 161.149 44.6994C161.069 44.6994 161.015 44.6726 160.935 44.6726C160.988 44.6726 161.042 44.6994 161.122 44.6994C160.828 44.6726 160.56 44.5923 160.266 44.5388C160.105 44.4853 159.891 44.5121 159.757 44.6191C159.624 44.6994 159.49 44.8599 159.463 45.0205C159.436 45.181 159.436 45.3951 159.543 45.5289C159.597 45.6627 159.731 45.7964 159.891 45.8232Z" fill="white"/>
<path d="M154.406 39.107C154.487 40.873 155.155 42.6122 156.413 43.8966C156.788 44.298 157.243 44.6191 157.697 44.9134C157.992 45.1007 158.447 44.9937 158.607 44.6726C158.795 44.3515 158.688 43.9501 158.366 43.7628C158.259 43.6826 158.126 43.6023 158.019 43.522C157.992 43.4953 157.804 43.3615 157.938 43.4685C157.885 43.4417 157.858 43.415 157.804 43.3615C157.59 43.1742 157.376 42.9869 157.189 42.7995C157.082 42.6925 156.975 42.5587 156.895 42.4517C156.975 42.5587 156.841 42.3714 156.814 42.3447C156.788 42.2912 156.734 42.2376 156.707 42.1841C156.52 41.9165 156.386 41.649 156.253 41.3546C156.226 41.3011 156.199 41.2208 156.172 41.1673C156.226 41.3279 156.146 41.087 156.146 41.0603C156.092 40.9265 156.065 40.8195 156.012 40.6857C155.931 40.4716 155.878 40.2308 155.824 39.99C155.798 39.8829 155.798 39.7759 155.771 39.6689C155.744 39.4816 155.771 39.7759 155.771 39.6689C155.771 39.6154 155.771 39.5886 155.744 39.5351C155.717 39.3746 155.717 39.214 155.717 39.0802C155.691 38.7324 155.423 38.3845 155.048 38.4113C154.727 38.438 154.406 38.7324 154.406 39.107Z" fill="white"/>
<path d="M182.956 42.2912C182.635 41.7828 182.876 41.0068 183.197 40.5786C184.562 38.6788 189.111 40.097 189.458 40.204C192.536 41.1941 194.864 43.4417 194.623 43.8966C194.409 44.298 192.589 43.0671 188.977 42.5587C185.739 42.0771 183.572 43.3079 182.956 42.2912Z" fill="#FFD405"/>
<path d="M212.55 84.6488C212.095 84.2475 211.613 83.8461 211.158 83.4447C210.142 82.5617 209.125 81.6787 208.108 80.8225C207.064 79.9395 206.021 79.0297 205.004 78.1467C204.496 77.7186 203.987 77.2904 203.506 76.8356C202.73 76.1399 201.98 75.4442 201.204 74.7217C200 73.6246 198.823 72.5008 197.699 71.3502C197.244 70.8686 196.789 70.3869 196.361 69.8785C196.335 69.8518 196.335 69.825 196.308 69.7983C196.254 69.718 196.415 69.9588 196.335 69.8518C196.308 69.7983 196.254 69.7715 196.228 69.718C196.174 69.6377 196.094 69.5307 196.04 69.4504C196.013 69.4237 195.987 69.3701 195.987 69.3434C195.96 69.3166 195.906 69.1561 195.96 69.3166C196.013 69.4504 195.96 69.3434 195.96 69.2899C195.96 69.2631 195.96 69.2631 195.96 69.2363C195.933 69.1293 195.987 69.4504 195.987 69.3434C195.987 69.2899 195.987 69.2363 195.987 69.2096C195.987 69.1293 195.933 69.4236 195.987 69.2899C195.987 69.2631 195.987 69.2363 196.013 69.2096C196.04 69.1561 196.04 69.1026 196.067 69.049C195.987 69.2631 196.04 69.1026 196.094 69.0223C196.174 68.8885 196.254 68.7815 196.335 68.6477C196.415 68.5139 196.254 68.7279 196.308 68.6744C196.335 68.6477 196.361 68.6209 196.388 68.5942C196.442 68.5406 196.495 68.4604 196.549 68.4069C196.789 68.1393 197.084 67.8717 197.351 67.6309C197.512 67.4971 197.672 67.3633 197.806 67.2563C197.672 67.3633 197.887 67.2028 197.806 67.2563C197.833 67.2295 197.887 67.2028 197.913 67.176C197.994 67.1225 198.074 67.0422 198.181 66.9887C198.85 66.5071 199.546 66.0789 200.268 65.7043C200.429 65.624 200.589 65.5438 200.75 65.4635C200.83 65.4367 200.91 65.41 200.964 65.3565C201.044 65.3297 200.803 65.41 200.883 65.3832C200.91 65.3832 200.91 65.3565 200.937 65.3565C200.964 65.3297 201.017 65.3297 201.044 65.3029C201.285 65.1959 201.526 65.1424 201.793 65.0889C201.927 65.0621 201.606 65.1156 201.713 65.0889C201.74 65.0889 201.766 65.0889 201.793 65.0889C201.847 65.0889 201.9 65.0889 201.954 65.0889C201.98 65.0889 202.007 65.0889 202.007 65.0889C202.007 65.0889 201.82 65.0621 201.927 65.0889C201.954 65.0889 202.007 65.1156 202.034 65.1156C202.141 65.1424 202.221 65.1692 202.328 65.1959C202.435 65.2227 202.516 65.2762 202.623 65.3029C202.73 65.3565 202.569 65.2762 202.569 65.2762C202.596 65.2762 202.623 65.3029 202.649 65.3029C202.703 65.3297 202.783 65.3565 202.837 65.3832C203.051 65.4903 203.265 65.624 203.452 65.7311C203.666 65.8649 203.88 66.0254 204.068 66.1592C204.094 66.186 204.255 66.293 204.121 66.186C204.175 66.2127 204.228 66.2662 204.282 66.293C204.389 66.3733 204.496 66.4535 204.603 66.5606C204.977 66.8817 205.352 67.2295 205.7 67.6041C205.834 67.7647 205.967 67.8985 206.101 68.059C206.128 68.0858 206.155 68.1393 206.181 68.166C206.101 68.059 206.288 68.2998 206.181 68.166C206.235 68.2463 206.288 68.3266 206.342 68.3801C206.529 68.6744 206.931 68.835 207.252 68.6209C207.546 68.4336 207.707 68.0055 207.493 67.7112C206.957 66.9084 206.235 66.186 205.513 65.5705C204.71 64.8748 203.8 64.2326 202.783 63.858C202.435 63.751 202.061 63.644 201.686 63.6707C201.365 63.6975 201.097 63.7778 200.803 63.8848C200.054 64.1524 199.358 64.527 198.689 64.9283C197.913 65.3832 197.191 65.8916 196.495 66.4535C195.906 66.9352 195.345 67.4703 194.943 68.0858C194.783 68.3266 194.649 68.5942 194.622 68.8885C194.569 69.2363 194.622 69.5039 194.756 69.825C194.97 70.3067 195.345 70.708 195.692 71.1094C196.709 72.2867 197.86 73.3838 199.01 74.4809C200.027 75.4442 201.071 76.3807 202.114 77.344C202.516 77.7186 202.917 78.0664 203.345 78.4143C204.308 79.2438 205.245 80.0465 206.208 80.876C207.305 81.8125 208.402 82.7758 209.499 83.7123C210.168 84.301 210.837 84.8629 211.506 85.4516C211.533 85.4783 211.56 85.5051 211.613 85.5319C211.881 85.7727 212.309 85.7994 212.55 85.5319C212.764 85.3445 212.817 84.8897 212.55 84.6488Z" fill="black"/>
<path d="M209.955 69.9054C210.463 69.0491 210.383 67.8986 209.687 67.1493C209.099 66.5072 208.082 66.4804 207.386 66.962C206.931 67.2564 206.61 67.7113 206.45 68.2464C206.343 68.5943 206.557 68.9956 206.904 69.0759C207.252 69.1562 207.627 68.9689 207.734 68.621C207.734 68.5675 207.761 68.5407 207.787 68.4872C207.814 68.3802 207.707 68.6478 207.787 68.514C207.814 68.4337 207.868 68.3802 207.894 68.3267C207.921 68.2999 207.921 68.2732 207.948 68.2464C207.841 68.4337 207.894 68.3267 207.948 68.2732C208.002 68.2197 208.028 68.1929 208.082 68.1394C208.162 68.0591 207.921 68.2464 208.055 68.1661C208.082 68.1394 208.109 68.1394 208.135 68.1126C208.189 68.0859 208.242 68.0591 208.296 68.0323C208.082 68.1394 208.269 68.0591 208.323 68.0323C208.376 68.0056 208.456 68.0056 208.51 68.0056C208.456 68.0056 208.403 68.0323 208.323 68.0323C208.43 68.0323 208.537 68.0323 208.644 68.0323C208.59 68.0323 208.537 68.0056 208.456 68.0056C208.51 68.0056 208.563 68.0323 208.617 68.0323C208.67 68.0591 208.751 68.1126 208.563 68.0056C208.59 68.0056 208.617 68.0323 208.617 68.0323C208.644 68.0591 208.67 68.0591 208.697 68.0859C208.777 68.1394 208.563 67.9788 208.644 68.0591C208.697 68.1126 208.724 68.1394 208.778 68.1929C208.858 68.2732 208.67 68.0591 208.751 68.1394C208.778 68.1661 208.804 68.1929 208.804 68.2464C208.831 68.2732 208.831 68.2999 208.858 68.3267C208.885 68.3802 208.911 68.514 208.858 68.2999C208.911 68.4337 208.938 68.5675 208.965 68.7281C208.965 68.6745 208.938 68.621 208.938 68.5407C208.965 68.6745 208.965 68.8351 208.938 68.9689C208.938 68.9154 208.965 68.8618 208.965 68.7816C208.938 68.8886 208.938 68.9956 208.885 69.1027C208.885 69.1294 208.858 69.1562 208.858 69.1562C208.831 69.2364 208.938 68.9956 208.885 69.1027C208.858 69.1562 208.831 69.2097 208.804 69.2632C208.617 69.5575 208.724 70.0124 209.045 70.173C209.366 70.3068 209.768 70.2265 209.955 69.9054Z" fill="black"/>
<path d="M159.677 85.3982C160.239 85.6925 160.827 85.9601 161.389 86.2544C162.62 86.8698 163.878 87.512 165.109 88.1275C166.34 88.7429 167.57 89.3583 168.801 89.9737C169.336 90.2413 169.872 90.5357 170.433 90.8032C171.531 91.2849 172.601 91.82 173.698 92.3284C175.25 93.0241 176.775 93.7198 178.381 94.3353C178.942 94.5493 179.531 94.7634 180.12 94.8972C180.628 95.0042 181.163 95.0845 181.618 94.7634C182.234 94.362 182.555 93.6663 182.849 92.9974C183.17 92.2482 183.358 91.4722 183.545 90.6962C183.732 89.8667 183.839 89.0105 183.893 88.1275C183.919 87.512 183.946 86.8431 183.786 86.2544C183.518 85.3714 182.689 84.7025 181.939 84.1941C181.056 83.5786 180.066 83.097 179.05 82.7224C178.675 82.5886 178.274 82.4548 177.899 82.3745C177.551 82.2943 177.15 82.4816 177.069 82.8294C176.989 83.1505 177.176 83.5786 177.524 83.6589C177.926 83.7392 178.327 83.873 178.702 84.0068C178.809 84.0335 178.916 84.087 179.023 84.1405C179.05 84.1405 179.237 84.2208 179.13 84.1941C179.05 84.1405 179.13 84.1941 179.157 84.1941C179.183 84.2208 179.237 84.2208 179.264 84.2476C179.504 84.3546 179.745 84.4616 179.986 84.5954C180.441 84.8362 180.896 85.0771 181.297 85.3714C181.351 85.3982 181.404 85.4517 181.431 85.4784C181.458 85.5052 181.484 85.5052 181.511 85.5319C181.618 85.6122 181.484 85.5052 181.484 85.5052C181.511 85.5052 181.592 85.5855 181.618 85.6122C181.672 85.6657 181.725 85.6925 181.752 85.746C181.913 85.8798 182.073 86.0403 182.207 86.2009C182.234 86.2276 182.26 86.2812 182.287 86.3079C182.153 86.1474 182.26 86.2812 182.287 86.3079C182.341 86.3882 182.394 86.4685 182.448 86.5755C182.528 86.736 182.394 86.3882 182.448 86.5487C182.475 86.6023 182.475 86.6558 182.501 86.6825C182.501 86.7361 182.528 86.7896 182.528 86.8431C182.528 86.8698 182.555 87.0036 182.528 86.8431C182.501 86.6825 182.528 86.8431 182.528 86.8698C182.555 87.0036 182.555 87.1642 182.555 87.298C182.555 87.6458 182.555 87.9669 182.528 88.3148C182.501 88.5021 182.501 88.7161 182.475 88.9034C182.475 88.9569 182.475 89.0105 182.448 89.0372C182.448 89.064 182.448 89.0907 182.448 89.1175C182.448 89.1175 182.475 88.9302 182.448 89.0372C182.421 89.1443 182.421 89.2513 182.394 89.3316C182.26 90.1343 182.1 90.937 181.832 91.713C181.779 91.9003 181.725 92.0609 181.645 92.2482C181.618 92.3284 181.592 92.4087 181.538 92.489C181.484 92.6228 181.592 92.3284 181.538 92.4622C181.511 92.5157 181.511 92.5425 181.484 92.596C181.404 92.7566 181.351 92.8903 181.27 93.0241C181.244 93.0776 181.19 93.1579 181.163 93.2114C181.137 93.2382 181.137 93.265 181.11 93.2917C181.083 93.3185 181.003 93.4255 181.083 93.3185C181.163 93.2114 181.083 93.3185 181.083 93.3452C181.056 93.372 181.056 93.3987 181.03 93.4255C180.976 93.479 180.949 93.5058 180.896 93.5593L180.869 93.586C180.816 93.6396 180.976 93.5058 180.949 93.5058C180.923 93.5058 180.896 93.5325 180.896 93.5593C180.869 93.5593 180.842 93.586 180.842 93.586C180.762 93.6396 180.708 93.6128 180.896 93.5593C180.869 93.5593 180.816 93.586 180.789 93.586C180.708 93.6128 180.949 93.586 180.923 93.5593C180.896 93.5593 180.896 93.5593 180.869 93.5593C180.789 93.5593 180.708 93.5593 180.628 93.5325C180.923 93.5593 180.735 93.5593 180.655 93.5325C180.601 93.5325 180.548 93.5058 180.494 93.5058C180.387 93.479 180.254 93.4523 180.147 93.4255C179.852 93.3452 179.558 93.2382 179.29 93.1579C178.595 92.9171 177.899 92.6228 177.203 92.3552C177.043 92.2749 177.283 92.3819 177.203 92.3552C177.15 92.3284 177.123 92.3284 177.069 92.3017C176.962 92.2482 176.855 92.2214 176.748 92.1679C176.561 92.0876 176.374 92.0073 176.186 91.9271C175.812 91.7665 175.41 91.5792 175.036 91.4187C173.832 90.8835 172.628 90.2948 171.424 89.7329C170.942 89.5189 170.46 89.278 169.979 89.0372C168.855 88.4753 167.731 87.9134 166.607 87.3515C165.323 86.7093 164.038 86.0671 162.781 85.4249C162.005 85.0503 161.229 84.6489 160.48 84.2743C160.453 84.2476 160.399 84.2476 160.373 84.2208C160.051 84.0603 159.623 84.1405 159.463 84.4616C159.275 84.8095 159.356 85.2376 159.677 85.3982Z" fill="black"/>
<path d="M175.999 81.7055C175.892 81.8393 176.052 81.6252 175.999 81.7055C175.999 81.7055 176.026 81.6787 176.052 81.652C176.079 81.6252 176.106 81.5985 176.133 81.5717C176.159 81.545 176.266 81.4647 176.159 81.545C176.052 81.6252 176.159 81.545 176.186 81.5182C176.213 81.4914 176.24 81.4914 176.266 81.4647C176.32 81.4379 176.4 81.4112 176.454 81.3844C176.4 81.4112 176.347 81.4379 176.293 81.4647C176.427 81.4112 176.561 81.3844 176.721 81.3576C176.668 81.3576 176.614 81.3844 176.534 81.3844C176.668 81.3576 176.828 81.3576 176.962 81.3844C176.909 81.3844 176.855 81.3576 176.775 81.3576C176.882 81.3844 177.016 81.4112 177.123 81.4647C177.176 81.4914 177.23 81.5717 177.069 81.4112C177.096 81.4379 177.123 81.4379 177.123 81.4647C177.149 81.4914 177.176 81.5182 177.176 81.5182C177.256 81.5985 177.069 81.3577 177.149 81.4647C177.203 81.5717 177.23 81.6787 177.23 81.7858C177.23 81.7323 177.203 81.6787 177.203 81.5985C177.23 81.7323 177.23 81.866 177.203 81.9998C177.203 81.9463 177.23 81.8928 177.23 81.8125C177.203 81.9463 177.176 82.0533 177.123 82.1871C177.096 82.2139 177.096 82.2407 177.069 82.2674C177.042 82.2942 176.962 82.4012 177.042 82.2942C177.123 82.1871 177.042 82.2942 177.016 82.3209C176.989 82.3477 176.962 82.3744 176.962 82.4012C176.909 82.4547 176.855 82.5082 176.802 82.535C176.668 82.642 176.614 82.8561 176.614 83.0166C176.614 83.1772 176.695 83.3645 176.802 83.4983C176.935 83.6053 177.096 83.7123 177.283 83.6856C177.471 83.6856 177.604 83.6053 177.765 83.4983C178.514 82.8828 178.755 81.8125 178.354 80.9295C177.952 80.1 176.935 79.8592 176.106 80.0733C175.544 80.2071 175.116 80.5549 174.768 81.0098C174.661 81.1436 174.661 81.3844 174.688 81.5182C174.741 81.6787 174.848 81.8393 174.982 81.9196C175.143 81.9998 175.33 82.0534 175.49 81.9998C175.785 81.9463 175.892 81.866 175.999 81.7055Z" fill="black"/>
</g>
<defs>
<clipPath id="clip0_619_3825">
<rect width="390" height="160" fill="white"/>
</clipPath>
</defs>
</svg>
